<svg xmlns="http://www.w3.org/2000/svg" viewBox="0 0 900 430" width="900" height="430" font-family="system-ui,-apple-system,'Segoe UI',Roboto,Helvetica,Arial,sans-serif" role="img" aria-label="They have to be right once. We have to be right every time.">
<rect width="900" height="430" fill="#1a1a19"/>
<text x="40" y="46" font-size="23" font-weight="700" fill="#ffffff">They have to be right once. We have to be right every time.</text>
<text x="40" y="72" font-size="14.5" fill="#c3c2b7">Each square is one attempt. Ninety-nine stopped. One got through.</text>
<rect x="40" y="110" width="30" height="30" rx="4" fill="#3f3e3a"/><rect x="78" y="110" width="30" height="30" rx="4" fill="#3f3e3a"/><rect x="116" y="110" width="30" height="30" rx="4" fill="#3f3e3a"/><rect x="154" y="110" width="30" height="30" rx="4" fill="#3f3e3a"/><rect x="192" y="110" width="30" height="30" rx="4" fill="#3f3e3a"/><rect x="230" y="110" width="30" height="30" rx="4" fill="#3f3e3a"/><rect x="268" y="110" width="30" height="30" rx="4" fill="#3f3e3a"/><rect x="306" y="110" width="30" height="30" rx="4" fill="#3f3e3a"/><rect x="344" y="110" width="30" height="30" rx="4" fill="#3f3e3a"/><rect x="382" y="110" width="30" height="30" rx="4" fill="#3f3e3a"/><rect x="420" y="110" width="30" height="30" rx="4" fill="#3f3e3a"/><rect x="458" y="110" width="30" height="30" rx="4" fill="#3f3e3a"/><rect x="496" y="110" width="30" height="30" rx="4" fill="#3f3e3a"/><rect x="534" y="110" width="30" height="30" rx="4" fill="#3f3e3a"/><rect x="572" y="110" width="30" height="30" rx="4" fill="#3f3e3a"/><rect x="610" y="110" width="30" height="30" rx="4" fill="#3f3e3a"/><rect x="648" y="110" width="30" height="30" rx="4" fill="#3f3e3a"/><rect x="686" y="110" width="30" height="30" rx="4" fill="#3f3e3a"/><rect x="724" y="110" width="30" height="30" rx="4" fill="#3f3e3a"/><rect x="762" y="110" width="30" height="30" rx="4" fill="#3f3e3a"/><rect x="40" y="148" width="30" height="30" rx="4" fill="#3f3e3a"/><rect x="78" y="148" width="30" height="30" rx="4" fill="#3f3e3a"/><rect x="116" y="148" width="30" height="30" rx="4" fill="#3f3e3a"/><rect x="154" y="148" width="30" height="30" rx="4" fill="#3f3e3a"/><rect x="192" y="148" width="30" height="30" rx="4" fill="#3f3e3a"/><rect x="230" y="148" width="30" height="30" rx="4" fill="#3f3e3a"/><rect x="268" y="148" width="30" height="30" rx="4" fill="#3f3e3a"/><rect x="306" y="148" width="30" height="30" rx="4" fill="#3f3e3a"/><rect x="344" y="148" width="30" height="30" rx="4" fill="#3f3e3a"/><rect x="382" y="148" width="30" height="30" rx="4" fill="#3f3e3a"/><rect x="420" y="148" width="30" height="30" rx="4" fill="#3f3e3a"/><rect x="458" y="148" width="30" height="30" rx="4" fill="#3f3e3a"/><rect x="496" y="148" width="30" height="30" rx="4" fill="#3f3e3a"/><rect x="534" y="148" width="30" height="30" rx="4" fill="#3f3e3a"/><rect x="572" y="148" width="30" height="30" rx="4" fill="#3f3e3a"/><rect x="610" y="148" width="30" height="30" rx="4" fill="#3f3e3a"/><rect x="648" y="148" width="30" height="30" rx="4" fill="#3f3e3a"/><rect x="686" y="148" width="30" height="30" rx="4" fill="#3f3e3a"/><rect x="724" y="148" width="30" height="30" rx="4" fill="#3f3e3a"/><rect x="762" y="148" width="30" height="30" rx="4" fill="#3f3e3a"/><rect x="40" y="186" width="30" height="30" rx="4" fill="#3f3e3a"/><rect x="78" y="186" width="30" height="30" rx="4" fill="#3f3e3a"/><rect x="116" y="186" width="30" height="30" rx="4" fill="#3f3e3a"/><rect x="154" y="186" width="30" height="30" rx="4" fill="#3f3e3a"/><rect x="192" y="186" width="30" height="30" rx="4" fill="#3f3e3a"/><rect x="230" y="186" width="30" height="30" rx="4" fill="#3f3e3a"/><rect x="268" y="186" width="30" height="30" rx="4" fill="#3f3e3a"/><rect x="306" y="186" width="30" height="30" rx="4" fill="#3f3e3a"/><rect x="344" y="186" width="30" height="30" rx="4" fill="#3f3e3a"/><rect x="382" y="186" width="30" height="30" rx="4" fill="#3f3e3a"/><rect x="420" y="186" width="30" height="30" rx="4" fill="#3f3e3a"/><rect x="458" y="186" width="30" height="30" rx="4" fill="#3f3e3a"/><rect x="496" y="186" width="30" height="30" rx="4" fill="#3f3e3a"/><rect x="534" y="186" width="30" height="30" rx="4" fill="#3f3e3a"/><rect x="572" y="186" width="30" height="30" rx="4" fill="#3f3e3a"/><rect x="610" y="186" width="30" height="30" rx="4" fill="#3f3e3a"/><rect x="648" y="186" width="30" height="30" rx="4" fill="#3f3e3a"/><rect x="686" y="186" width="30" height="30" rx="4" fill="#3f3e3a"/><rect x="724" y="186" width="30" height="30" rx="4" fill="#3f3e3a"/><rect x="762" y="186" width="30" height="30" rx="4" fill="#3f3e3a"/><rect x="40" y="224" width="30" height="30" rx="4" fill="#3f3e3a"/><rect x="78" y="224" width="30" height="30" rx="4" fill="#3f3e3a"/><rect x="116" y="224" width="30" height="30" rx="4" fill="#3f3e3a"/><rect x="154" y="224" width="30" height="30" rx="4" fill="#d95926"/><rect x="151" y="221" width="36" height="36" rx="6" fill="none" stroke="#d95926" stroke-width="2" opacity="0.45"/><rect x="192" y="224" width="30" height="30" rx="4" fill="#3f3e3a"/><rect x="230" y="224" width="30" height="30" rx="4" fill="#3f3e3a"/><rect x="268" y="224" width="30" height="30" rx="4" fill="#3f3e3a"/><rect x="306" y="224" width="30" height="30" rx="4" fill="#3f3e3a"/><rect x="344" y="224" width="30" height="30" rx="4" fill="#3f3e3a"/><rect x="382" y="224" width="30" height="30" rx="4" fill="#3f3e3a"/><rect x="420" y="224" width="30" height="30" rx="4" fill="#3f3e3a"/><rect x="458" y="224" width="30" height="30" rx="4" fill="#3f3e3a"/><rect x="496" y="224" width="30" height="30" rx="4" fill="#3f3e3a"/><rect x="534" y="224" width="30" height="30" rx="4" fill="#3f3e3a"/><rect x="572" y="224" width="30" height="30" rx="4" fill="#3f3e3a"/><rect x="610" y="224" width="30" height="30" rx="4" fill="#3f3e3a"/><rect x="648" y="224" width="30" height="30" rx="4" fill="#3f3e3a"/><rect x="686" y="224" width="30" height="30" rx="4" fill="#3f3e3a"/><rect x="724" y="224" width="30" height="30" rx="4" fill="#3f3e3a"/><rect x="762" y="224" width="30" height="30" rx="4" fill="#3f3e3a"/><rect x="40" y="262" width="30" height="30" rx="4" fill="#3f3e3a"/><rect x="78" y="262" width="30" height="30" rx="4" fill="#3f3e3a"/><rect x="116" y="262" width="30" height="30" rx="4" fill="#3f3e3a"/><rect x="154" y="262" width="30" height="30" rx="4" fill="#3f3e3a"/><rect x="192" y="262" width="30" height="30" rx="4" fill="#3f3e3a"/><rect x="230" y="262" width="30" height="30" rx="4" fill="#3f3e3a"/><rect x="268" y="262" width="30" height="30" rx="4" fill="#3f3e3a"/><rect x="306" y="262" width="30" height="30" rx="4" fill="#3f3e3a"/><rect x="344" y="262" width="30" height="30" rx="4" fill="#3f3e3a"/><rect x="382" y="262" width="30" height="30" rx="4" fill="#3f3e3a"/><rect x="420" y="262" width="30" height="30" rx="4" fill="#3f3e3a"/><rect x="458" y="262" width="30" height="30" rx="4" fill="#3f3e3a"/><rect x="496" y="262" width="30" height="30" rx="4" fill="#3f3e3a"/><rect x="534" y="262" width="30" height="30" rx="4" fill="#3f3e3a"/><rect x="572" y="262" width="30" height="30" rx="4" fill="#3f3e3a"/><rect x="610" y="262" width="30" height="30" rx="4" fill="#3f3e3a"/><rect x="648" y="262" width="30" height="30" rx="4" fill="#3f3e3a"/><rect x="686" y="262" width="30" height="30" rx="4" fill="#3f3e3a"/><rect x="724" y="262" width="30" height="30" rx="4" fill="#3f3e3a"/><rect x="762" y="262" width="30" height="30" rx="4" fill="#3f3e3a"/><circle cx="46" cy="325" r="6" fill="#d95926"/><text x="62" y="330" font-size="13.5" font-weight="600" fill="#ffffff">The one that got through</text><text x="40" y="356" font-size="12.5" fill="#c3c2b7">A 99% block rate is a failing grade. That asymmetry is why this is a team sport, and why nobody wins it alone.</text></svg>